<svg width="442" height="282" viewBox="0 0 442 282" fill="none" xmlns="http://www.w3.org/2000/svg">
<rect x="80" y="139" width="40" height="143" fill="white"/>
<rect x="321" y="139" width="40" height="143" fill="white"/>
<rect x="167" y="140" width="30" height="142" fill="white"/>
<rect x="244" y="140" width="30" height="142" fill="white"/>
<rect x="62" y="236" width="318" height="46" rx="10" fill="white"/>
<rect x="111" y="221" width="230" height="34" fill="white"/>
<rect x="57" y="136" width="329" height="20" rx="8" fill="white"/>
<path d="M116.99 3.9863C111.239 2.15065 108.363 1.23282 106.15 2.38125C103.937 3.52968 102.982 6.5702 101.071 12.6512C95.6244 29.9844 87.7784 45.8985 83.4202 53.847C82.9852 54.6404 82.7677 55.0371 82.464 55.4242C82.1603 55.8114 81.8071 56.1352 81.1007 56.7827L59.7389 76.3643C59.1205 76.9313 58.8112 77.2147 58.4668 77.4518C58.1224 77.6888 57.7472 77.8764 56.9968 78.2516L23.2628 95.1186C22.8815 95.3092 22.6909 95.4045 22.4942 95.486C22.2975 95.5675 22.0953 95.6349 21.691 95.7697L6.86579 100.711C6.51076 100.83 6.33324 100.889 6.16413 100.957C5.12537 101.375 4.22427 102.075 3.56274 102.978C3.45504 103.125 3.35385 103.283 3.15147 103.598C2.69835 104.303 2.47179 104.655 2.31114 104.989C1.30473 107.084 1.59882 109.572 3.066 111.375C3.30019 111.663 3.60268 111.953 4.20767 112.532L11.3214 119.35C11.6605 119.675 11.8301 119.837 12.0116 119.986C12.1932 120.134 12.386 120.268 12.7715 120.537L23.5 128L40.811 136.889C41.4049 137.194 41.7018 137.347 42.0132 137.465C42.3245 137.584 42.6477 137.667 43.2942 137.834L56.0773 141.133C56.7877 141.316 57.143 141.408 57.5058 141.456C57.8687 141.503 58.2356 141.507 58.9693 141.513L214.394 142.893C220.096 142.943 222.948 142.968 224.724 141.208C226.5 139.447 226.5 136.596 226.5 130.893V31.0584C226.5 25.5925 226.5 22.8596 224.821 21.1168C223.143 19.3741 220.412 19.2717 214.95 19.0669L186.5 18L169 16L152.432 14.1065C151.966 14.0533 151.733 14.0267 151.503 13.982C151.274 13.9374 151.048 13.8749 150.596 13.7499L128 7.5L116.99 3.9863Z" fill="white" stroke="white"/>
<path d="M331.255 1.99315C334.611 0.922054 338.157 2.96197 339.082 6.36114C344.615 26.6831 354.298 46.1585 359.037 54.6741C359.342 55.2236 359.736 55.7164 360.2 56.1413L382.881 76.9322C383.292 77.3089 383.753 77.6265 384.252 77.8758L419.119 95.3093C419.373 95.4363 419.635 95.5451 419.905 95.6348L435.494 100.831C436.792 101.264 437.903 102.128 438.644 103.279L439.328 104.343C440.88 106.757 440.504 109.933 438.432 111.919L430.339 119.675C430.113 119.891 429.871 120.09 429.614 120.268L418.5 128L400.594 137.195C400.199 137.398 399.783 137.556 399.353 137.667L385.211 141.316C384.739 141.438 384.253 141.502 383.765 141.507L221.553 142.946C218.219 142.976 215.5 140.281 215.5 136.947V25.2792C215.5 22.053 218.051 19.4043 221.275 19.2834L255.5 18L290.034 14.0533C290.344 14.0178 290.651 13.9582 290.952 13.8749L314 7.5L331.255 1.99315Z" fill="white"/>
</svg>
