<svg width="555" height="770" viewBox="0 0 555 770" fill="none" xmlns="http://www.w3.org/2000/svg">
<path d="M277.5 0C430.402 0 555 133.246 555 307.995C555 356.042 536.442 408.556 512.924 456.988C488.885 506.499 457.285 556.51 426.31 600.784C388.409 654.669 347.928 706.255 305.042 755.32L302.892 757.746L302.302 758.4L302.094 758.632L302.059 758.67C298.836 762.261 295.006 765.11 290.789 767.055C286.572 768.999 282.049 770 277.482 770C272.916 770 268.394 768.999 264.177 767.055C259.959 765.11 256.129 762.261 252.906 758.67L252.698 758.4L252.108 757.746L249.958 755.32C237.73 741.34 225.704 727.145 213.883 712.74C184.204 676.646 155.786 639.3 128.69 600.784C97.7493 556.51 66.1146 506.46 42.0762 457.027C18.558 408.557 0 356.042 0 307.995C0.000203095 133.246 124.598 0 277.5 0Z" fill="#065BF5"/>
<path d="M174.083 418.667L201.167 301.583L110.333 222.833L230.333 212.417L277 102L323.667 212.417L443.667 222.833L352.833 301.583L379.917 418.667L277 356.583L174.083 418.667Z" fill="white"/>
</svg>
