<svg width="555" height="770" viewBox="0 0 555 770" fill="none" xmlns="http://www.w3.org/2000/svg">
<mask id="path-1-inside-1_251_1253" fill="white">
<path d="M277.5 0C430.402 0 555 133.246 555 307.995C555 356.042 536.442 408.556 512.924 456.988C488.885 506.499 457.286 556.51 426.31 600.784C388.409 654.669 347.928 706.255 305.042 755.32L302.892 757.746L302.302 758.4L302.094 758.632L302.059 758.67C298.836 762.261 295.006 765.11 290.789 767.055C286.572 768.999 282.049 770 277.482 770C272.916 770 268.394 768.999 264.177 767.055C259.959 765.11 256.129 762.261 252.906 758.67L252.698 758.4L252.108 757.746L249.958 755.32C237.73 741.34 225.704 727.145 213.883 712.74C184.204 676.646 155.786 639.3 128.69 600.784C97.7493 556.51 66.1146 506.46 42.0762 457.027C18.558 408.557 0 356.042 0 307.995C0.000203095 133.246 124.598 0 277.5 0Z"/>
</mask>
<path d="M277.5 0C430.402 0 555 133.246 555 307.995C555 356.042 536.442 408.556 512.924 456.988C488.885 506.499 457.286 556.51 426.31 600.784C388.409 654.669 347.928 706.255 305.042 755.32L302.892 757.746L302.302 758.4L302.094 758.632L302.059 758.67C298.836 762.261 295.006 765.11 290.789 767.055C286.572 768.999 282.049 770 277.482 770C272.916 770 268.394 768.999 264.177 767.055C259.959 765.11 256.129 762.261 252.906 758.67L252.698 758.4L252.108 757.746L249.958 755.32C237.73 741.34 225.704 727.145 213.883 712.74C184.204 676.646 155.786 639.3 128.69 600.784C97.7493 556.51 66.1146 506.46 42.0762 457.027C18.558 408.557 0 356.042 0 307.995C0.000203095 133.246 124.598 0 277.5 0Z" fill="white"/>
<path d="M555 307.995L570 307.995L570 307.995L555 307.995ZM512.924 456.988L499.431 450.436L499.43 450.437L512.924 456.988ZM426.31 600.784L438.579 609.414L438.589 609.398L438.6 609.383L426.31 600.784ZM305.042 755.32L316.267 765.271L316.301 765.231L316.336 765.192L305.042 755.32ZM302.892 757.746L314.033 767.79L314.075 767.743L314.116 767.696L302.892 757.746ZM302.302 758.4L291.161 748.357L291.153 748.365L291.145 748.374L302.302 758.4ZM302.094 758.632L313.116 768.806L313.183 768.733L313.25 768.659L302.094 758.632ZM302.059 758.67L291.037 748.496L290.965 748.573L290.895 748.651L302.059 758.67ZM290.789 767.055L297.069 780.677L297.069 780.677L290.789 767.055ZM277.482 770L277.482 785H277.482V770ZM264.177 767.055L257.897 780.677L257.897 780.677L264.177 767.055ZM252.906 758.67L241.031 767.834L241.371 768.275L241.743 768.689L252.906 758.67ZM252.698 758.4L264.573 749.236L264.223 748.782L263.839 748.357L252.698 758.4ZM252.108 757.746L240.884 767.696L240.925 767.743L240.967 767.79L252.108 757.746ZM249.958 755.32L238.667 765.196L238.7 765.233L238.733 765.271L249.958 755.32ZM213.883 712.74L225.478 703.225L225.474 703.219L225.469 703.213L213.883 712.74ZM128.69 600.784L116.395 609.377L116.409 609.396L116.422 609.415L128.69 600.784ZM42.0762 457.027L28.5808 463.575L28.5866 463.587L42.0762 457.027ZM0 307.995L-15 307.995V307.995H0ZM277.5 0V15C420.837 15 540 140.189 540 307.995L555 307.995L570 307.995C570 126.304 439.968 -15 277.5 -15V0ZM555 307.995H540C540 352.61 522.636 402.647 499.431 450.436L512.924 456.988L526.417 463.54C550.248 414.465 570 359.475 570 307.995H555ZM512.924 456.988L499.43 450.437C475.867 498.967 444.749 548.262 414.019 592.185L426.31 600.784L438.6 609.383C469.822 564.758 501.903 514.03 526.417 463.54L512.924 456.988ZM426.31 600.784L414.04 592.155C376.44 645.613 336.284 696.785 293.748 745.449L305.042 755.32L316.336 765.192C359.573 715.726 400.379 663.725 438.579 609.414L426.31 600.784ZM305.042 755.32L293.817 745.37L291.667 747.796L302.892 757.746L314.116 767.696L316.267 765.271L305.042 755.32ZM302.892 757.746L291.75 747.702L291.161 748.357L302.302 758.4L313.443 768.444L314.033 767.79L302.892 757.746ZM302.302 758.4L291.145 748.374L290.937 748.605L302.094 758.632L313.25 768.659L313.458 768.427L302.302 758.4ZM302.094 758.632L291.072 748.458L291.037 748.496L302.059 758.67L313.081 768.844L313.116 768.806L302.094 758.632ZM302.059 758.67L290.895 748.651C288.983 750.782 286.797 752.378 284.509 753.433L290.789 767.055L297.069 780.677C303.216 777.843 308.689 773.74 313.222 768.689L302.059 758.67ZM290.789 767.055L284.509 753.433C282.226 754.485 279.843 755 277.482 755V770V785C284.255 785 290.917 783.513 297.069 780.677L290.789 767.055ZM277.482 770L277.483 755C275.122 755 272.74 754.485 270.457 753.433L264.177 767.055L257.897 780.677C264.048 783.513 270.709 785 277.482 785L277.482 770ZM264.177 767.055L270.457 753.433C268.168 752.377 265.981 750.781 264.07 748.651L252.906 758.67L241.743 768.689C246.277 773.741 251.751 777.843 257.897 780.677L264.177 767.055ZM252.906 758.67L264.781 749.506L264.573 749.236L252.698 758.4L240.823 767.565L241.031 767.834L252.906 758.67ZM252.698 758.4L263.839 748.357L263.25 747.702L252.108 757.746L240.967 767.79L241.557 768.444L252.698 758.4ZM252.108 757.746L263.333 747.796L261.183 745.37L249.958 755.32L238.733 765.271L240.884 767.696L252.108 757.746ZM249.958 755.32L261.249 745.445C249.125 731.583 237.2 717.508 225.478 703.225L213.883 712.74L202.287 722.256C214.207 736.782 226.336 751.097 238.667 765.196L249.958 755.32ZM213.883 712.74L225.469 703.213C196.031 667.412 167.84 630.364 140.959 592.154L128.69 600.784L116.422 609.415C143.732 648.235 172.378 685.881 202.297 722.267L213.883 712.74ZM128.69 600.784L140.986 592.192C110.285 548.262 79.13 498.926 55.5658 450.468L42.0762 457.027L28.5866 463.587C53.0992 513.995 85.2135 564.758 116.395 609.377L128.69 600.784ZM42.0762 457.027L55.5715 450.479C32.3637 402.648 15 352.61 15 307.995H0H-15C-15 359.475 4.75236 414.465 28.5808 463.575L42.0762 457.027ZM0 307.995L15 307.995C15.0002 140.189 134.163 15 277.5 15V0V-15C115.032 -15 -14.9998 126.304 -15 307.995L0 307.995Z" fill="#AAAAAA" mask="url(#path-1-inside-1_251_1253)"/>
<rect x="136" y="275" width="40" height="143" fill="#065BF5"/>
<rect x="377" y="275" width="40" height="143" fill="#065BF5"/>
<rect x="223" y="276" width="30" height="142" fill="#065BF5"/>
<rect x="300" y="276" width="30" height="142" fill="#065BF5"/>
<rect x="118" y="372" width="318" height="46" rx="10" fill="#065BF5"/>
<rect x="167" y="357" width="230" height="34" fill="#065BF5"/>
<rect x="113" y="272" width="329" height="20" rx="8" fill="#065BF5"/>
<path d="M172.99 139.986C167.239 138.151 164.363 137.233 162.15 138.381C159.937 139.53 158.982 142.57 157.071 148.651C151.624 165.984 143.778 181.899 139.42 189.847C138.985 190.64 138.768 191.037 138.464 191.424C138.16 191.811 137.807 192.135 137.101 192.783L115.739 212.364C115.12 212.931 114.811 213.215 114.467 213.452C114.122 213.689 113.747 213.876 112.997 214.252L79.2628 231.119C78.8815 231.309 78.6909 231.405 78.4942 231.486C78.2975 231.568 78.0953 231.635 77.6909 231.77L62.8658 236.711C62.5108 236.83 62.3332 236.889 62.1641 236.957C61.1254 237.375 60.2243 238.075 59.5627 238.978C59.455 239.125 59.3539 239.283 59.1515 239.598V239.598C58.6984 240.303 58.4718 240.655 58.3111 240.989C57.3047 243.084 57.5988 245.572 59.066 247.375C59.3002 247.663 59.6027 247.953 60.2077 248.532L67.3214 255.35C67.6605 255.675 67.8301 255.837 68.0116 255.986C68.1932 256.134 68.386 256.268 68.7715 256.537L79.5 264L96.811 272.889C97.4049 273.194 97.7018 273.347 98.0132 273.465C98.3245 273.584 98.6477 273.667 99.2942 273.834L112.077 277.133C112.788 277.316 113.143 277.408 113.506 277.456C113.869 277.503 114.236 277.507 114.969 277.513L270.394 278.893C276.096 278.943 278.948 278.968 280.724 277.208C282.5 275.447 282.5 272.596 282.5 266.893V167.058C282.5 161.593 282.5 158.86 280.821 157.117C279.143 155.374 276.412 155.272 270.95 155.067L242.5 154L225 152L208.432 150.107C207.966 150.053 207.733 150.027 207.503 149.982C207.274 149.937 207.048 149.875 206.596 149.75L184 143.5L172.99 139.986Z" fill="#065BF5" stroke="#065BF5"/>
<path d="M387.255 137.993C390.611 136.922 394.157 138.962 395.082 142.361C400.615 162.683 410.298 182.158 415.037 190.674C415.342 191.224 415.736 191.716 416.2 192.141L438.881 212.932C439.292 213.309 439.753 213.626 440.252 213.876L475.119 231.309C475.373 231.436 475.635 231.545 475.905 231.635L491.494 236.831C492.792 237.264 493.903 238.128 494.644 239.279L495.328 240.343C496.88 242.757 496.504 245.933 494.432 247.919L486.339 255.675C486.113 255.891 485.871 256.09 485.614 256.268L474.5 264L456.594 273.195C456.199 273.398 455.783 273.556 455.353 273.667L441.211 277.316C440.739 277.438 440.253 277.502 439.765 277.507L277.553 278.946C274.219 278.976 271.5 276.281 271.5 272.947V161.279C271.5 158.053 274.051 155.404 277.275 155.283L311.5 154L346.034 150.053C346.344 150.018 346.651 149.958 346.952 149.875L370 143.5L387.255 137.993Z" fill="#065BF5"/>
</svg>
