<svg width="555" height="770" viewBox="0 0 555 770" fill="none" xmlns="http://www.w3.org/2000/svg">
<path d="M277.5 0C430.402 0 555 133.246 555 307.995C555 356.042 536.442 408.556 512.924 456.988C488.885 506.499 457.285 556.51 426.31 600.784C388.409 654.669 347.928 706.255 305.042 755.32L302.892 757.746L302.302 758.4L302.094 758.632L302.059 758.67C298.836 762.261 295.006 765.11 290.789 767.055C286.572 768.999 282.049 770 277.482 770C272.916 770 268.394 768.999 264.177 767.055C259.959 765.11 256.129 762.261 252.906 758.67L252.698 758.4L252.108 757.746L249.958 755.32C237.73 741.34 225.704 727.145 213.883 712.74C184.204 676.646 155.786 639.3 128.69 600.784C97.7493 556.51 66.1146 506.46 42.0762 457.027C18.558 408.557 0 356.042 0 307.995C0.000203095 133.246 124.598 0 277.5 0Z" fill="#065BF5"/>
<path d="M263.686 267.8L251.286 284.6C218.886 279.8 198.486 272.2 189.886 261.6C180.286 272 159.486 280 128.086 284.6L115.286 268C146.086 265.4 164.886 259.4 171.886 250.4H124.686V234.6H254.486V250.2L207.286 250.4C214.286 259.8 233.086 265.6 263.686 267.8ZM224.886 210.2V226H154.486V210.2H224.886ZM255.886 375V390.6H133.686C129.486 390.6 128.086 389.2 128.086 385V354C128.086 350 129.486 348.4 133.686 348.4H227.286V336.8H128.086V321.2H177.286V307.2H107.486V291.2H272.486V307.2H201.686V321.2H245.886C249.686 321.2 251.486 323 251.486 326.8V357.4C251.486 361.6 249.886 363 245.886 363H152.486V375H255.886ZM313.9 280.6H354.5V259.4H313.9V280.6ZM376.5 217.6V293.4C376.5 297.6 374.9 299 370.9 299H296.7C292.5 299 291.3 297.6 291.3 293.4V217.6H313.9V241.2H354.5V217.6H376.5ZM427.5 264.4V305.4H404.7V212.8H427.5V245.2H450.3V264.4H427.5ZM431.3 373V390.6H315.9C311.7 390.6 310.3 389.2 310.3 385V348.6C310.3 344.6 311.7 343 315.9 343H403.3V329.8H310.3V312.2H421.7C425.5 312.2 427.3 314 427.3 317.8V353.2C427.3 357.4 425.7 358.8 421.7 358.8H334.5V373H431.3Z" fill="white"/>
</svg>
